<?xml version="1.0" encoding="UTF-8"?>
<svg id="Layer_1" data-name="Layer 1" xmlns="http://www.w3.org/2000/svg" viewBox="0 0 978.09 894.19">
  <defs>
    <style>
      .cls-1 {
        fill: #010101;
      }

      .cls-1, .cls-2 {
        stroke-width: 0px;
      }
    </style>
  </defs>
  <path class="cls-2" d="M128.31,140.59c11.35-11.37,22.13-22.22,33.02-32.97.96-.95,2.58-1.4,3.98-1.7,1.3-.28,2.71-.06,4.07-.06,244.38,0,488.77,0,733.15-.08,4.38,0,7.52,1.15,10.66,4.34,20.29,20.59,40.77,41,61.31,61.35,2.47,2.45,3.6,4.85,3.6,8.4-.09,153.74-.09,307.48,0,461.22,0,3.55-1.13,5.95-3.6,8.4-20.77,20.59-41.47,41.27-62.04,62.06-2.63,2.66-5.24,3.61-8.91,3.61-144.22-.08-288.43-.05-432.65-.17-4.29,0-7.18,1.3-10.16,4.28-56.92,57.08-113.94,114.06-170.93,171.07-1.32,1.32-2.42,2.86-3.26,3.86-16.4-16.37-32.35-32.29-48.55-48.45.59-.63,1.67-1.87,2.83-3.02,64.45-64.46,128.92-128.91,193.3-193.44,2.61-2.62,5.18-3.68,8.88-3.67,143.7.09,287.41.06,431.11.16,4.05,0,6.96-.99,9.78-3.98,6.88-7.3,14.03-14.35,21.27-21.29,2.53-2.43,3.51-4.91,3.51-8.44-.1-76.55-.08-153.09-.08-229.64,0-57.82-.03-115.64.07-173.47,0-3.51-.91-6.02-3.46-8.46-7.48-7.18-14.81-14.53-22.01-22-2.31-2.4-4.68-3.31-8.01-3.31-68.54.09-137.07.07-205.61.07-167,0-334.01-.02-501.01.09-4.09,0-6.93-1.15-9.75-4.07-9.91-10.24-20.09-20.22-30.54-30.67Z"/>
  <path class="cls-2" d="M139.6,281.28C93.23,234.72,46.34,187.63,0,141.09,46.62,94.26,93.67,47,140.45,0c15.75,15.83,31.88,32.04,48.02,48.27-30.19,30.18-60.81,60.79-91.13,91.11,31.16,31.16,61.86,61.86,92.08,92.07-17.19,17.2-33.36,33.36-49.82,49.83Z"/>
  <g>
    <path class="cls-1" d="M393.23,444.32l-44.25-109.93-43.42,109.93h-45.92l65.68-166.99h47.31l66.52,166.99h-45.92Z"/>
    <path class="cls-1" d="M463.92,555.65v-41.47h159.75v41.47h-159.75Z"/>
    <path class="cls-1" d="M782.87,444.32l-44.25-109.93-43.42,109.93h-45.92l65.68-166.99h47.31l66.52,166.99h-45.92Z"/>
  </g>
</svg>